<svg id="visual" viewBox="0 0 900 600" width="900" height="600" xmlns="http://www.w3.org/2000/svg" xmlns:xlink="http://www.w3.org/1999/xlink" version="1.1"><rect x="0" y="0" width="900" height="600" fill="#1E3A8A"></rect><path d="M0 518L12.5 509.3C25 500.7 50 483.3 75 474.8C100 466.3 125 466.7 150 478.7C175 490.7 200 514.3 225 518.8C250 523.3 275 508.7 300 497.7C325 486.7 350 479.3 375 486C400 492.7 425 513.3 450 515.3C475 517.3 500 500.7 525 495.8C550 491 575 498 600 504.3C625 510.7 650 516.3 675 523.5C700 530.7 725 539.3 750 534.7C775 530 800 512 825 506.7C850 501.3 875 508.7 887.5 512.3L900 516L900 601L887.5 601C875 601 850 601 825 601C800 601 775 601 750 601C725 601 700 601 675 601C650 601 625 601 600 601C575 601 550 601 525 601C500 601 475 601 450 601C425 601 400 601 375 601C350 601 325 601 300 601C275 601 250 601 225 601C200 601 175 601 150 601C125 601 100 601 75 601C50 601 25 601 12.5 601L0 601Z" fill="#0066FF" stroke-linecap="round" stroke-linejoin="miter"></path></svg>